<svg id="Capa_1" data-name="Capa 1" xmlns="http://www.w3.org/2000/svg" xmlns:xlink="http://www.w3.org/1999/xlink" viewBox="0 0 588.18 396.21"><defs><linearGradient id="åçûìßííûé_ãðàäèåíò_24" x1="210.52" y1="397.25" x2="375.95" y2="397.25" gradientTransform="translate(147.27 -280.41) rotate(16.46)" gradientUnits="userSpaceOnUse"><stop offset="0" stop-color="#9349e0"/><stop offset="0.16" stop-color="#6962e3"/><stop offset="0.33" stop-color="#4378e5"/><stop offset="0.51" stop-color="#268ae7"/><stop offset="0.68" stop-color="#1196e9"/><stop offset="0.84" stop-color="#049dea"/><stop offset="1" stop-color="#00a0ea"/></linearGradient><linearGradient id="åçûìßííûé_ãðàäèåíò_24-2" x1="149.84" y1="-67.06" x2="300.12" y2="-67.06" gradientTransform="translate(147.77 19.84) rotate(60.84)" xlink:href="#åçûìßííûé_ãðàäèåíò_24"/><linearGradient id="åçûìßííûé_ãðàäèåíò_24-3" x1="236" y1="397.25" x2="350.47" y2="397.25" xlink:href="#åçûìßííûé_ãðàäèåíò_24"/><linearGradient id="åçûìßííûé_ãðàäèåíò_24-4" x1="239.66" y1="-5.08" x2="266.92" y2="16.84" gradientTransform="translate(147.77 19.84) rotate(60.84)" xlink:href="#åçûìßííûé_ãðàäèåíò_24"/><linearGradient id="åçûìßííûé_ãðàäèåíò_24-5" x1="227.1" y1="-0.29" x2="192.96" y2="-26.85" gradientTransform="translate(147.77 19.84) rotate(60.84)" xlink:href="#åçûìßííûé_ãðàäèåíò_24"/><linearGradient id="åçûìßííûé_ãðàäèåíò_24-6" x1="264.08" y1="-74.21" x2="261.26" y2="-145.21" gradientTransform="translate(147.77 19.84) rotate(60.84)" xlink:href="#åçûìßííûé_ãðàäèåíò_24"/><linearGradient id="åçûìßííûé_ãðàäèåíò_24-7" x1="144.31" y1="-29.5" x2="291.32" y2="-29.5" gradientTransform="translate(147.77 19.84) rotate(60.84)" xlink:href="#åçûìßííûé_ãðàäèåíò_24"/><linearGradient id="åçûìßííûé_ãðàäèåíò_24-8" x1="285.34" y1="-57.45" x2="255.24" y2="-28.55" gradientTransform="translate(147.77 19.84) rotate(60.84)" xlink:href="#åçûìßííûé_ãðàäèåíò_24"/><linearGradient id="åçûìßííûé_ãðàäèåíò_24-9" x1="305.89" y1="360.16" x2="367.6" y2="360.16" xlink:href="#åçûìßííûé_ãðàäèåíò_24"/><linearGradient id="åçûìßííûé_ãðàäèåíò_24-10" x1="183.86" y1="-85.6" x2="204.22" y2="-113.69" gradientTransform="translate(147.77 19.84) rotate(60.84)" xlink:href="#åçûìßííûé_ãðàäèåíò_24"/></defs><title>cofo-logo</title><path d="M157.63,395.34v30.5H80.49a72,72,0,0,1-36.91-11.28,78.93,78.93,0,0,1-27.17-28.45,75.87,75.87,0,0,1-10-37.93,74.18,74.18,0,0,1,10.12-37.93,75.71,75.71,0,0,1,27.55-27.68,74.87,74.87,0,0,1,37.93-10A74.28,74.28,0,0,1,120,282.69a75.81,75.81,0,0,1,27.68,27.56,74,74,0,0,1,10,37.93H127.39a44.78,44.78,0,0,0-3.46-17.3,45.69,45.69,0,0,0-24.61-24.61A44.78,44.78,0,0,0,82,302.81q-17.94,0-32,13.33a43.37,43.37,0,0,0-9.74,14.74,46,46,0,0,0-3.34,17.3,53.23,53.23,0,0,0,3.47,18.58A42.29,42.29,0,0,0,50,382.27q13.83,13.07,32,13.07Z" transform="translate(-5.91 -101.9)" style="fill:#575756"/><path d="M158.14,426.34H80.49A72.7,72.7,0,0,1,43.31,415,79.74,79.74,0,0,1,16,386.36,76.76,76.76,0,0,1,5.91,348.18,75.06,75.06,0,0,1,16.1,310a76.6,76.6,0,0,1,27.73-27.86A75.81,75.81,0,0,1,82,272.06a75,75,0,0,1,38.19,10.2A76.6,76.6,0,0,1,148.07,310a74.88,74.88,0,0,1,10.07,38.19v.5H126.88v-.5a44.4,44.4,0,0,0-3.42-17.11,45.21,45.21,0,0,0-24.33-24.33A44.4,44.4,0,0,0,82,303.32c-11.77,0-22.43,4.44-31.69,13.19a43,43,0,0,0-9.61,14.56,45.77,45.77,0,0,0-3.3,17.11,52.88,52.88,0,0,0,3.43,18.4,42,42,0,0,0,9.49,15.33c9.08,8.57,19.74,12.92,31.68,12.92h76.12ZM82,273.08A74.87,74.87,0,0,0,44.34,283,75.62,75.62,0,0,0,17,310.5,73.94,73.94,0,0,0,6.92,348.18a75.7,75.7,0,0,0,9.93,37.68,78.77,78.77,0,0,0,27,28.27,71.72,71.72,0,0,0,36.65,11.2h76.62V395.84H82c-12.2,0-23.1-4.44-32.38-13.21a42.86,42.86,0,0,1-9.74-15.7,53.91,53.91,0,0,1-3.49-18.75,46.75,46.75,0,0,1,3.37-17.49,44.11,44.11,0,0,1,9.85-14.91C59.09,306.84,70,302.31,82,302.31a45.26,45.26,0,0,1,17.5,3.5,46.1,46.1,0,0,1,24.87,24.87,45.29,45.29,0,0,1,3.5,17h29.23a73.83,73.83,0,0,0-9.92-37.17,75.73,75.73,0,0,0-27.5-27.37A74.08,74.08,0,0,0,82,273.08Z" transform="translate(-5.91 -101.9)" style="fill:#6f6f6e"/><path d="M291.54,282.82a76.43,76.43,0,0,1,27.55,27.94,79.15,79.15,0,0,1,10,39.21v.26a77.69,77.69,0,0,1-10,38.95,76.16,76.16,0,0,1-27.42,28.2,72.55,72.55,0,0,1-38.19,10.51,74.35,74.35,0,0,1-65.35-38.45Q177.87,372,177.87,350.23V350a78.52,78.52,0,0,1,10-39.08,75.47,75.47,0,0,1,103.67-28.07Zm8.07,67.41q0-21-13.58-34.6a45.78,45.78,0,0,0-65.1,0Q207.61,329,207.6,350.23t13.33,34.6a44.86,44.86,0,0,0,14.87,9.87,46.93,46.93,0,0,0,35.37,0A44.92,44.92,0,0,0,286,384.83Q299.62,371.24,299.61,350.23Z" transform="translate(-5.91 -101.9)" style="fill:#575756"/><path d="M253.48,428.39a74.83,74.83,0,0,1-65.8-38.7c-6.84-11.63-10.31-24.91-10.31-39.46V350a79.33,79.33,0,0,1,10.06-39.33A76,76,0,0,1,291.8,282.39h0a77.3,77.3,0,0,1,27.73,28.11A80.1,80.1,0,0,1,329.59,350v.26a78.59,78.59,0,0,1-10.06,39.2,76.9,76.9,0,0,1-27.6,28.38A73.4,73.4,0,0,1,253.48,428.39Zm.26-155.31a74.88,74.88,0,0,0-65.43,38.05A78.41,78.41,0,0,0,178.38,350v.26a75.79,75.79,0,0,0,10.18,39,73.84,73.84,0,0,0,64.92,38.19,72.34,72.34,0,0,0,37.93-10.44,76,76,0,0,0,27.24-28,77.65,77.65,0,0,0,9.93-38.71V350a79.09,79.09,0,0,0-9.93-39,76.24,76.24,0,0,0-27.37-27.74h0A72.59,72.59,0,0,0,253.74,273.08Zm-.26,125.58a47,47,0,0,1-17.87-3.5,45.34,45.34,0,0,1-15-10c-9-8.94-13.48-20.7-13.48-35s4.53-26,13.48-35a46.29,46.29,0,0,1,65.81,0c9.11,9.12,13.73,20.88,13.73,35s-4.62,25.84-13.73,35a45.65,45.65,0,0,1-15,10A47,47,0,0,1,253.48,398.66Zm0-96.11A44.09,44.09,0,0,0,221.29,316c-8.75,8.74-13.18,20.26-13.18,34.24s4.43,25.5,13.18,34.24a44.57,44.57,0,0,0,14.7,9.76,46.43,46.43,0,0,0,35,0,44.52,44.52,0,0,0,14.7-9.76c8.92-8.91,13.44-20.44,13.44-34.24s-4.52-25.32-13.44-34.24A44.1,44.1,0,0,0,253.48,302.55Z" transform="translate(-5.91 -101.9)" style="fill:#6f6f6e"/><path d="M383.17,395.08h45.1v30.24h-45.1V497.6H352.92V342.28a73.49,73.49,0,0,1,10.13-37.8,76,76,0,0,1,27.55-27.55,73.45,73.45,0,0,1,37.67-10v30.24a45.23,45.23,0,0,0-17.17,3.34,43.78,43.78,0,0,0-14.61,9.74q-13.32,14.1-13.32,32Z" transform="translate(-5.91 -101.9)" style="fill:#575756"/><path d="M383.67,498.1H352.42V342.28a74.38,74.38,0,0,1,10.19-38.06,77,77,0,0,1,27.73-27.73,74.37,74.37,0,0,1,37.93-10.06h.51v31.25h-.51a44.88,44.88,0,0,0-17,3.3,43.41,43.41,0,0,0-14.44,9.62c-8.74,9.25-13.18,19.91-13.18,31.68v52.29h45.11v31.26H383.67Zm-30.24-1h29.23V424.82h45.11V395.58H382.66v-53.3c0-12,4.53-22.93,13.47-32.38A44.61,44.61,0,0,1,410.91,300a46,46,0,0,1,16.86-3.37V267.44a73.35,73.35,0,0,0-36.92,9.92,75.91,75.91,0,0,0-27.37,27.37,73.35,73.35,0,0,0-10.05,37.55Z" transform="translate(-5.91 -101.9)" style="fill:#6f6f6e"/><path d="M556,282.82a76.58,76.58,0,0,1,27.55,27.94,79.25,79.25,0,0,1,10,39.21v.26a77.79,77.79,0,0,1-10,38.95,76.31,76.31,0,0,1-27.42,28.2A72.58,72.58,0,0,1,518,427.89a74.38,74.38,0,0,1-65.36-38.45Q442.38,372,442.37,350.23V350a78.42,78.42,0,0,1,10-39.08A75.47,75.47,0,0,1,556,282.82Zm8.07,67.41q0-21-13.58-34.6a45.78,45.78,0,0,0-65.1,0Q472.1,329,472.1,350.23t13.33,34.6a44.82,44.82,0,0,0,14.86,9.87,46.93,46.93,0,0,0,35.37,0,45,45,0,0,0,14.87-9.87Q564.11,371.24,564.11,350.23Z" transform="translate(-5.91 -101.9)" style="fill:#575756"/><path d="M518,428.39a74.83,74.83,0,0,1-65.8-38.7,76.73,76.73,0,0,1-10.32-39.46V350a79.43,79.43,0,0,1,10.06-39.33,76,76,0,0,1,104.37-28.25h0A77.25,77.25,0,0,1,584,310.5,80.21,80.21,0,0,1,594.09,350v.26A78.7,78.7,0,0,1,584,389.43a77,77,0,0,1-27.6,28.38A73.43,73.43,0,0,1,518,428.39Zm.25-155.31a74.85,74.85,0,0,0-65.42,38.05A78.41,78.41,0,0,0,442.88,350v.26c0,14.37,3.42,27.47,10.18,39A73.81,73.81,0,0,0,518,427.38a72.33,72.33,0,0,0,37.92-10.44,76,76,0,0,0,27.25-28,77.65,77.65,0,0,0,9.93-38.71V350a79.09,79.09,0,0,0-9.93-39,76.4,76.4,0,0,0-27.37-27.74A72.65,72.65,0,0,0,518.23,273.08ZM518,398.66a47,47,0,0,1-17.88-3.5,45.44,45.44,0,0,1-15-10c-8.94-8.94-13.48-20.7-13.48-35s4.54-26,13.48-35a46.29,46.29,0,0,1,65.81,0c9.12,9.12,13.74,20.88,13.74,35s-4.62,25.84-13.74,35a45.55,45.55,0,0,1-15,10A47,47,0,0,1,518,398.66Zm0-96.11A44.07,44.07,0,0,0,485.79,316c-8.75,8.74-13.18,20.26-13.18,34.24s4.43,25.5,13.18,34.24a44.53,44.53,0,0,0,14.69,9.76,46.46,46.46,0,0,0,35,0,44.52,44.52,0,0,0,14.7-9.76c8.91-8.91,13.43-20.44,13.43-34.24s-4.52-25.32-13.43-34.24A44.1,44.1,0,0,0,518,302.55Z" transform="translate(-5.91 -101.9)" style="fill:#6f6f6e"/><path d="M241.46,204.35a56.93,56.93,0,0,1,65.26-82.53l49.57,14.06a57,57,0,0,1-31.1,109.59L275.63,231.4A56.78,56.78,0,0,1,241.46,204.35ZM379.65,169a44.46,44.46,0,0,0-26.74-21.18l-49.56-14.06A44.58,44.58,0,1,0,279,219.5l49.56,14.06A44.55,44.55,0,0,0,379.65,169Z" transform="translate(-5.91 -101.9)" style="fill:url(#åçûìßííûé_ãðàäèåíò_24)"/><path d="M395.53,206.22a57,57,0,0,0-23.43-63.09A43.78,43.78,0,0,1,369.9,157a44.57,44.57,0,0,1-41.33,76.59L279,219.5a44.57,44.57,0,0,1-.84-85.51,43.62,43.62,0,0,1,11.66-14.33,57,57,0,0,0-14.2,111.74l49.56,14.07A57,57,0,0,0,395.53,206.22Z" transform="translate(-5.91 -101.9)" style="fill:url(#åçûìßííûé_ãðàäèåíò_24-2)"/><path d="M259.18,236.17a56.61,56.61,0,0,1-5.05-43.3l14.06-49.56a57,57,0,0,1,109.59,31.1L363.72,224a57,57,0,0,1-104.54,12.2Zm102.74-99a44.58,44.58,0,0,0-81.82,9.55L266,196.25a44.58,44.58,0,0,0,85.78,24.34L365.88,171A44.3,44.3,0,0,0,361.92,137.14Z" transform="translate(-5.91 -101.9)" style="fill:url(#åçûìßííûé_ãðàäèåíò_24-3)"/><path d="M284.86,247.27c.11-.38.18-.75.27-1.13a44.28,44.28,0,0,1-15.14-16,45.08,45.08,0,0,1-4.35-11c-4.56-2.43-9.32-4.77-13.59-7.32a57,57,0,0,0,27.57,45.46A20,20,0,0,0,284.86,247.27Z" transform="translate(-5.91 -101.9)" style="fill:url(#åçûìßííûé_ãðàäèåíò_24-4)"/><path d="M265.31,217.76a44.33,44.33,0,0,1,.72-21.51l10.54-37.14a36.91,36.91,0,0,0-11.86-3.52l-10.58,37.28a56.89,56.89,0,0,0-1.83,21.92A41.37,41.37,0,0,0,265.31,217.76Z" transform="translate(-5.91 -101.9)" style="fill:url(#åçûìßííûé_ãðàäèåíò_24-5)"/><path d="M379.17,168.18c.16.27.33.52.48.78a44.48,44.48,0,0,1-18.08,61.09,56.47,56.47,0,0,1-10.47,16.61A56.92,56.92,0,0,0,379,148.49,56.55,56.55,0,0,1,379.17,168.18Z" transform="translate(-5.91 -101.9)" style="fill:url(#åçûìßííûé_ãðàäèåíò_24-6)"/><path d="M344.64,235.06a44,44,0,0,1-16.07-1.5L279,219.5a44.54,44.54,0,0,1-8.72-82.23,56.45,56.45,0,0,1,10.52-16.66,57,57,0,0,0-5.18,110.79l49.56,14.07a55.82,55.82,0,0,0,6.24,1.38A44.51,44.51,0,0,0,344.64,235.06Z" transform="translate(-5.91 -101.9)" style="fill:url(#åçûìßííûé_ãðàäèåíò_24-7)"/><path d="M331.43,246.85a44.51,44.51,0,0,0,13.21-11.79,44,44,0,0,1-16.07-1.5l-10.28-2.91a57.2,57.2,0,0,0-6.09,11.13l13,3.69A55.82,55.82,0,0,0,331.43,246.85Z" transform="translate(-5.91 -101.9)" style="fill:url(#åçûìßííûé_ãðàäèåíò_24-8)"/><path d="M352.91,147.78A44.65,44.65,0,0,1,385.1,186.4,63.89,63.89,0,0,0,395.75,176a57,57,0,0,0-39.46-40.11l-12-3.41A86.93,86.93,0,0,0,343.07,145Z" transform="translate(-5.91 -101.9)" style="fill:url(#åçûìßííûé_ãðàäèåíò_24-9)"/><path d="M312.61,136.35l40.3,11.43a44.37,44.37,0,0,1,20.76,12.87,35.32,35.32,0,0,0,2.68-3.39,45.12,45.12,0,0,0,3.55-7.91,56.52,56.52,0,0,0-23.61-13.47l-39.81-11.3A33,33,0,0,0,312.61,136.35Z" transform="translate(-5.91 -101.9)" style="fill:url(#åçûìßííûé_ãðàäèåíò_24-10)"/></svg>