<svg id="Capa_1" data-name="Capa 1" xmlns="http://www.w3.org/2000/svg" xmlns:xlink="http://www.w3.org/1999/xlink" viewBox="0 0 587.51 459"><defs><linearGradient id="linear-gradient" x1="355.65" y1="147.9" x2="370.49" y2="147.9" gradientUnits="userSpaceOnUse"><stop offset="0" stop-color="#39c2ff"/><stop offset="1" stop-color="#007ac4"/></linearGradient><linearGradient id="linear-gradient-2" x1="487.87" y1="15.93" x2="502.7" y2="15.93" gradientTransform="translate(-195.93 94.89) rotate(4.63)" xlink:href="#linear-gradient"/><linearGradient id="linear-gradient-3" x1="-856.66" y1="564.01" x2="-841.82" y2="564.01" gradientTransform="translate(775.16 -686.79) rotate(-21.62)" xlink:href="#linear-gradient"/></defs><title>company</title><g style="opacity:0.5"><rect x="375.27" y="201.33" width="179.81" height="20.24" style="fill:#d5ebf2"/><rect x="380.72" width="167.65" height="201.33" style="fill:#b8cad1"/><rect x="382.5" y="1.79" width="164.08" height="197.76" style="fill:#c3d5de"/><path d="M543.89,81.9l8.93-9.4V269.83l-8.93-9.4Z" transform="translate(-6.25 -70.5)" style="fill:#b8cad1"/><path d="M397.68,81.9l-8.93-9.4V269.83q4.47-4.69,8.93-9.4Z" transform="translate(-6.25 -70.5)" style="fill:#d5ebf2"/><rect x="389.65" y="8.93" width="149.79" height="183.47" style="fill:#b8cad1"/><rect x="390.54" y="9.82" width="148" height="181.68" style="fill:#aab3bb"/><rect x="391.43" y="10.72" width="146.22" height="179.9" style="fill:#8dcfff"/><rect x="440.75" y="11.12" width="4.02" height="66.24" style="fill:#c3d5de"/><rect x="485.4" y="11.12" width="4.02" height="66.24" style="fill:#c3d5de"/><path d="M535.86,89.26v60.22H405.72V89.26H535.86m8-8H397.68v76.3H543.89V81.22Z" transform="translate(-6.25 -70.5)" style="fill:#c3d5de"/><path d="M536,118.69v59.44H407.52V118.69H536m7.93-7.93H399.59v75.3h144.3v-75.3Z" transform="translate(-6.25 -70.5)" style="fill:#c3d5de"/><rect x="440.75" y="46.36" width="4.02" height="64.3" style="fill:#d5ebf2"/><rect x="485.4" y="46.36" width="4.02" height="64.3" style="fill:#d5ebf2"/><path d="M535.86,117.8V178H405.72V117.8H535.86m8-8H397.68v76.3H543.89v-76.3Z" transform="translate(-6.25 -70.5)" style="fill:#d5ebf2"/><path d="M433.3,268.81l9.68.42s1.43,4.19.69,4.87S441.8,280,441.8,280l-5.49,2.28-3.13-2.29s.25-1.61,1.5-1.38-.49-1.27-1-1.83S428.86,271.85,433.3,268.81Z" transform="translate(-6.25 -70.5)" style="fill:#fff"/></g><path d="M470.76,212.64h7.09v3.64A8.73,8.73,0,0,0,470.76,212.64Z" transform="translate(-6.25 -70.5)" style="fill:#dce5ea"/><path d="M468.67,212.64v10a8.76,8.76,0,0,0,8.77,8.76h.41v15.44H446.56V212.64Z" transform="translate(-6.25 -70.5)" style="fill:#dce5ea"/><path d="M492.69,398.11a14.26,14.26,0,0,0,9.42-3.41c4.73-4.11,6.78-11.43,6.09-21.75-.46-7-3.21-14-6.11-21.49-4.88-12.56-10.42-26.8-7.52-45.63l-5.39-.83c-3.11,20.27,3,35.88,7.84,48.43,2.86,7.37,5.34,13.74,5.75,19.88.56,8.36-.89,14.33-4.18,17.24a9,9,0,0,1-7.2,2l-1.09,5.33A11.42,11.42,0,0,0,492.69,398.11Z" transform="translate(-6.25 -70.5)" style="fill:#484f59"/><path d="M455,398.11a14.26,14.26,0,0,0,9.42-3.41c4.73-4.11,6.78-11.43,6.1-21.75-.47-7-3.21-14-6.12-21.49-4.88-12.56-10.42-26.8-7.52-45.63l-5.38-.83c-3.12,20.27,3,35.88,7.83,48.43,2.87,7.37,5.34,13.74,5.75,19.88.56,8.36-.88,14.33-4.18,17.24a9,9,0,0,1-7.2,2l-1.09,5.33A11.42,11.42,0,0,0,455,398.11Z" transform="translate(-6.25 -70.5)" style="fill:#484f59"/><path d="M451,441.29l-5.3,8.08,44.51,14.26s3-2.84-7.94-8.55C469.51,448.42,451,441.29,451,441.29Z" transform="translate(-6.25 -70.5)" style="fill:#a69faf"/><path d="M443.05,441.29l5.3,8.08-44.52,14.26s-3-2.84,7.95-8.55C424.5,448.42,443.05,441.29,443.05,441.29Z" transform="translate(-6.25 -70.5)" style="fill:#a69faf"/><rect x="436.11" y="346.74" width="9.3" height="33.12" style="fill:#a69faf"/><path d="M451.55,443,447,450.7l38.11,13.61s2.54-2.71-6.81-8.16C467.43,449.8,451.55,443,451.55,443Z" transform="translate(-6.25 -70.5)" style="fill:#c4c5c7"/><path d="M442.46,443,447,450.7l-38.11,13.61s-2.54-2.71,6.81-8.16C426.58,449.8,442.46,443,442.46,443Z" transform="translate(-6.25 -70.5)" style="fill:#c4c5c7"/><path d="M480.81,467.38a3.24,3.24,0,1,0,3.23-3.24A3.23,3.23,0,0,0,480.81,467.38Z" transform="translate(-6.25 -70.5)" style="fill:#161711"/><path d="M407,467.38a3.24,3.24,0,1,0,3.24-3.24A3.24,3.24,0,0,0,407,467.38Z" transform="translate(-6.25 -70.5)" style="fill:#161711"/><path d="M488.64,467.38a3.23,3.23,0,1,0,3.23-3.24A3.23,3.23,0,0,0,488.64,467.38Z" transform="translate(-6.25 -70.5)" style="fill:#484f59"/><path d="M399.15,467.38a3.23,3.23,0,1,0,3.23-3.24A3.23,3.23,0,0,0,399.15,467.38Z" transform="translate(-6.25 -70.5)" style="fill:#484f59"/><rect x="437.48" y="334.61" width="6.8" height="11.91" style="fill:#484f59"/><path d="M438.62,398.82a6.63,6.63,0,0,0,6.64,6.63H449a6.63,6.63,0,0,0,6.64-6.63h0a6.64,6.64,0,0,0-6.64-6.64h-3.73a6.64,6.64,0,0,0-6.64,6.64Z" transform="translate(-6.25 -70.5)" style="fill:#484f59"/><path d="M396.55,392.75c-.16-.78-.26-5.68-.26-6.53,0-5.35,3.47-9.69,7.74-9.69h86.19c4.27,0,7.73,4.34,7.73,9.69,0,.85-.09,5.75-.25,6.53Z" transform="translate(-6.25 -70.5)" style="fill:#ca9ed2"/><path d="M498.75,395.38c0,1.63-1,3-2.14,3h-99c-1.18,0-2.14-1.33-2.14-3h0c0-1.65,1-3,2.14-3h99c1.18,0,2.14,1.32,2.14,3Z" transform="translate(-6.25 -70.5)" style="fill:#484f59"/><path d="M493.93,343c-2.13.16-15.64.39-18,.42-14.79.18-27.53-2.59-28.23-6.23a126.15,126.15,0,0,1-.39-45.8c.63-3.65,13.56-6.42,28.66-6.24,2.38,0,16.17.27,18.33.43A123.94,123.94,0,0,0,493.93,343Z" transform="translate(-6.25 -70.5)" style="fill:#ca9ed2"/><path d="M496,285.56c1.65,0,2.81.8,2.58,1.75a123.56,123.56,0,0,0-.46,53.92c.2,1-.94,1.74-2.56,1.76h0c-1.62,0-3.12-.74-3.33-1.69a124,124,0,0,1,.36-54.05c.22-1,1.75-1.71,3.41-1.69Z" transform="translate(-6.25 -70.5)" style="fill:#484f59"/><path d="M495.6,342.61a37.72,37.72,0,0,1-3.88.26c-3.22,0-6.54-2.8-7.18-6.38a124.14,124.14,0,0,1,.2-45.11A7.94,7.94,0,0,1,492.1,285a36.22,36.22,0,0,1,3.95.26A123.78,123.78,0,0,0,495.6,342.61Z" transform="translate(-6.25 -70.5)" style="fill:#b982c5"/><path d="M451.52,234.5s12.26,4.38.49,39.52-19.62,30.88-19.62,30.88l-9.73-.94L404,281.83,414.05,273l2,.81s2.59-1.08,2.89-3.5,5-12.52,8.58-33.17C429.19,227.66,449.17,233.64,451.52,234.5Z" transform="translate(-6.25 -70.5)" style="fill:#cfd9e8"/><path d="M406.66,282.25s-24.2,12.36-39.44-11.57c-4.54-7.11-2.6,1.08-.12,8.86s17.51,25.4,34.61,26.58,23.61.23,26.81-5.68S406.66,282.25,406.66,282.25Z" transform="translate(-6.25 -70.5)" style="fill:#ffc4ad"/><path d="M427.44,276.63l-6.13-4-2.55-1.45a5.32,5.32,0,0,1-2.68,2.64l5.12,2.1,5.58,3.59,5.76,6.93Z" transform="translate(-6.25 -70.5)" style="fill:#aebddc"/><path d="M428.89,335.45l45.82-1,19-63.78s8.72-38.42-7.57-39.06c-23.66-.93-54.71-.5-54.71-.5S415.51,245,428.89,335.45Z" transform="translate(-6.25 -70.5)" style="fill:#cfd9e8"/><path d="M445.34,332l-5.38.79a282.89,282.89,0,0,1,9.13-99.9l4.4,1.46A276.5,276.5,0,0,0,445.34,332Z" transform="translate(-6.25 -70.5)" style="fill:#aebddc"/><path d="M353.45,470.88s4.46,6.87,6.74,2.66c6.82-12.64,13-52.54,13.37-68.91.52-21.83,1.51-35.15,1.51-35.15l-22-8Z" transform="translate(-6.25 -70.5)" style="fill:#163f59"/><path d="M430.51,335,353,361.52l20.33,11.35s79.94,14,81.36-15.65C455.89,332.26,430.51,335,430.51,335Z" transform="translate(-6.25 -70.5)" style="fill:#163f59"/><path d="M381,471.51s4,3.68,6.29-.54c6.83-12.63,18-46.22,18.42-62.59.52-21.83-3.09-37-3.09-37l-22.44-7.79Z" transform="translate(-6.25 -70.5)" style="fill:#194866"/><path d="M454.54,335.84l-73.9,27.88,20.24,11s75,14,76.45-15.64S454.54,335.84,454.54,335.84Z" transform="translate(-6.25 -70.5)" style="fill:#194866"/><path d="M478.65,360.76c.19,2.05-1,8.87-3.28,11.61-7,8.45-23.57,5.62-36.78,5.62-.73,0-4.41-10.31-4.41-10.31L428.66,334l46.34.79S477.05,343.74,478.65,360.76Z" transform="translate(-6.25 -70.5)" style="fill:#194866"/><path d="M403.37,314.33l-17-3.05s-2.64-.28-2.77,1.54c-.15,2.41.28,10.27.28,10.27l3-1.88,4.37,2.67,5.07-6.71a13.05,13.05,0,0,0,4.81-.05C401.93,316.94,403.37,314.33,403.37,314.33Z" transform="translate(-6.25 -70.5)" style="fill:#ffc4ad"/><path d="M445,309.52l-44.92,5s24.1,12.31,35.13,12.38a98.28,98.28,0,0,0,21.38-2.45Z" transform="translate(-6.25 -70.5)" style="fill:#ffc4ad"/><path d="M467.15,263l-22.44,42.47,1.29,3.44-3.46.64L453,326.18l16.45-3.75,29.58-58.61s6.23-17.69-7.89-31.2C484.11,225.88,469.13,259.55,467.15,263Z" transform="translate(-6.25 -70.5)" style="fill:#aebddc"/><path d="M461.45,319.91s-10.62-8.12-16-12.55l.57,1.5-3.46.64,3.67,5.74,6.37,7.4,3.64-1.33-1.38-2.6Z" transform="translate(-6.25 -70.5)" style="fill:#cfd9e8"/><path d="M447.31,202a5.54,5.54,0,0,0,5.55,5.55h21a5.54,5.54,0,0,0,5.55-5.55h0a5.55,5.55,0,0,0-5.55-5.55h-21a5.55,5.55,0,0,0-5.55,5.55Z" transform="translate(-6.25 -70.5)" style="fill:#163f59"/><path d="M451.16,211.6a10.26,10.26,0,0,0,10.25,10.26h10.95a10.27,10.27,0,0,0,10.26-10.26h0a10.26,10.26,0,0,0-10.26-10.26H461.41a10.25,10.25,0,0,0-10.25,10.26Z" transform="translate(-6.25 -70.5)" style="fill:#163f59"/><path d="M442.92,228V196c0-5.11,4.14,0,9.25,0h4.94a9.25,9.25,0,0,1,9.25,9.25V228Z" transform="translate(-6.25 -70.5)" style="fill:#ffc4ad"/><path d="M462.27,212.36a4.06,4.06,0,0,0,4.06,4.06h0a4.07,4.07,0,0,0,4.07-4.06h0a4.07,4.07,0,0,0-4.07-4.06h0a4.06,4.06,0,0,0-4.06,4.06Z" transform="translate(-6.25 -70.5)" style="fill:#ffc4ad"/><path d="M445.6,218a2.32,2.32,0,0,1-2.28,2.36h-1.9a2.31,2.31,0,0,1-2.27-2.36s4.16-12.17,5.42-12.17a3.82,3.82,0,0,1,1,2.35Z" transform="translate(-6.25 -70.5)" style="fill:#ffc4ad"/><path d="M455.87,226.27c9.26,0,10.22-2.84,10.49-6.08,0,0,2.47,8.12,2.47,10.74v2.92c0,5.64-5.8,10.21-13,10.21H442.92V226.27Z" transform="translate(-6.25 -70.5)" style="fill:#163f59"/><path d="M442.92,220.31h7.4a6.17,6.17,0,0,1,6.17,6.17,6,6,0,0,1-.22,1.54H442.92Z" transform="translate(-6.25 -70.5)" style="fill:#163f59"/><path d="M452.48,226.79v2.06a1,1,0,0,1-1,1h-6a1,1,0,0,1-1-1v-2.06Z" transform="translate(-6.25 -70.5)" style="fill:#ffc4ad"/><path d="M446.11,190.25h19a3.7,3.7,0,0,1,3.7,3.7v7.4H446.11Z" transform="translate(-6.25 -70.5)" style="fill:#163f59"/><path d="M434.35,195.78a5.59,5.59,0,0,0,5.59,5.59h12.85a5.59,5.59,0,0,0,5.59-5.59h0a5.59,5.59,0,0,0-5.59-5.59H439.94a5.59,5.59,0,0,0-5.59,5.59Z" transform="translate(-6.25 -70.5)" style="fill:#163f59"/><rect x="455.21" y="128.18" width="5.13" height="13.5" style="fill:#163f59"/><rect x="443.64" y="122.37" width="15.1" height="15.89" style="fill:#163f59"/><path d="M461.45,209a7.64,7.64,0,0,0-7.63-7.64h-3.95c-4.21,0-6.47,3.42-6.47,7.64h0a7.64,7.64,0,0,0,7.64,7.64h2.78a7.64,7.64,0,0,0,7.63-7.64Z" transform="translate(-6.25 -70.5)" style="fill:#ffc4ad"/><path d="M369.07,279s3.64-8.74,2.34-11.1-6.67-10.71-6.67-10.71l-1.57-2s-3.18.48.48,6S364,265,364,265l-5.26-3.8L352,257.08l-2.78-2.23s-1.49-1.38-2.12-1.41c-1.84-.08-1.22,1.33-1.22,1.33l10.08,9.56L344.2,258s-1.64-.56-2.22.13-.08.94-.08.94l11.56,10.23-6.41-2.59s-1.62-.51-2.23.13-.86.87-.86.87l23.58,13.2Z" transform="translate(-6.25 -70.5)" style="fill:#ffc4ad"/><path d="M354.05,266l-8.5-4a7.71,7.71,0,0,0-3-1.09,1.23,1.23,0,0,0-1.36,1.15l12.23,7.24Z" transform="translate(-6.25 -70.5)" style="fill:#ffc4ad"/><path d="M373.79,478.29a5,5,0,0,0-.08,2.37s6.92,1.14,9.14.46a10.05,10.05,0,0,0,2.46-1.55c.15-.12.42-.84.57-1s.42.16.66,0a8.82,8.82,0,0,0,1-1c.56-4.32-.26-6.07-.26-6.07s-5.92-2.74-7-.9C377.78,475,374.64,476.87,373.79,478.29Z" transform="translate(-6.25 -70.5)" style="fill:#194866"/><path d="M360.92,472.85l-1,6.26H354.7s-.29-.89-.73-.89-.86.89-1.37.89H339.27s-.24-1.32.05-1.77a4.81,4.81,0,0,1,1.61-.84c2.71-.93,10.9-2.95,12.73-5.86C355.07,468.39,360.92,472.85,360.92,472.85Z" transform="translate(-6.25 -70.5)" style="fill:#163f59"/><path d="M402.73,323.55l0-.07,0-2.2h-91v2.2a.15.15,0,0,0,0,.07l.23.41c1.17,1.9,3.27,2.25,5.67,2.25h79.21c2.4,0,4.5-.35,5.67-2.25Z" transform="translate(-6.25 -70.5)" style="fill:#b4c0c7"/><path d="M380.79,323.92a.11.11,0,0,0,0,.06l.23.33a3.66,3.66,0,0,0,1.33,1.12h13.84c2.31,0,4.33-.28,5.45-1.82l.22-.33,0-.06,0-1.08H380.79Z" transform="translate(-6.25 -70.5)" style="fill:#d6e3eb"/><rect x="316.78" y="251.28" width="45.48" height="1.55" style="fill:#8599a4"/><path d="M380.29,321.2l-11.8-44.73a3,3,0,0,0-2.7-2.13H301.93a1.58,1.58,0,0,0-1.57,2.13l11.8,44.73Z" transform="translate(-6.25 -70.5)" style="fill:#d7dfe2"/><path d="M344.18,297.77a3.08,3.08,0,0,1-3.05,4.13,5.75,5.75,0,0,1-5.22-4.13,3.07,3.07,0,0,1,3-4.14A5.77,5.77,0,0,1,344.18,297.77Z" transform="translate(-6.25 -70.5)" style="fill:#b4c0c7"/><polygon points="237.07 409.34 227.76 409.34 243.13 260.48 256.64 260.48 237.07 409.34" style="fill:#c4c5c7"/><polygon points="255.74 267.34 249.81 312.42 242.78 263.84 243.13 260.48 254.94 260.48 255.74 267.34" style="fill:#a69faf"/><polygon points="334.88 409.34 344.2 409.34 328.83 260.48 315.32 260.48 334.88 409.34" style="fill:#c4c5c7"/><polygon points="316.22 267.34 334.3 313.28 329.17 263.84 328.83 260.48 317.02 260.48 316.22 267.34" style="fill:#a69faf"/><polygon points="418.85 409.34 409.54 409.34 424.91 260.48 438.42 260.48 418.85 409.34" style="fill:#c4c5c7"/><polygon points="437.51 267.34 431.59 312.42 424.56 263.84 424.91 260.48 436.71 260.48 437.51 267.34" style="fill:#a69faf"/><polygon points="516.66 409.34 525.98 409.34 510.61 260.48 497.1 260.48 516.66 409.34" style="fill:#c4c5c7"/><polygon points="498 267.34 516.08 313.28 510.95 263.84 510.61 260.48 498.8 260.48 498 267.34" style="fill:#a69faf"/><rect x="227.2" y="255.64" width="296.45" height="8.7" style="fill:#8dcfff"/><rect x="227.2" y="255.64" width="189.33" height="8.7" style="fill:#2c7eea"/><path d="M553.38,467.73s4.25-15.19,10.93-20.35,11.55-12.45,20.35-15.79,10.94-9.42,7.6-11.54-14.28-8.2-27.64,5.77-16.71,24.9-16.4,38S552.77,475.32,553.38,467.73Z" transform="translate(-6.25 -70.5)" style="fill:#cfd9e8"/><path d="M587.4,422.37S574,426.32,568,430.88,550.65,448.19,550,460.64" transform="translate(-6.25 -70.5)" style="fill:none;stroke:#aebddc;stroke-miterlimit:10;stroke-width:1.96836px"/><path d="M549.74,472.59s-6.89-19.44-9.72-25.51-2.43-20.66,2-26.33,11.75-14.17,8.51-26.72-1.62-20.25,4.45-15.39,16.74,15.57,17,32.8c.2,13.16-3.68,20.87-10.94,30.37C555.2,449.51,549.33,463.68,549.74,472.59Z" transform="translate(-6.25 -70.5)" style="fill:#ca9ed2"/><path d="M547,468c-.15-.8-3.64-19.72,0-27.7.84-1.82,2-4,3.16-6.39,3.92-7.7,9.29-18.25,9.84-25.59.89-11.81-6.51-23.2-6.58-23.31l1-.67c.32.48,7.7,11.85,6.79,24.07-.57,7.59-5.79,17.83-10,26.05-1.19,2.34-2.32,4.55-3.15,6.35-3.52,7.63,0,26.78.05,27Z" transform="translate(-6.25 -70.5)" style="fill:#a05fb0"/><path d="M522.7,443.74c-7.89-1.52-8.5-10.63-2.42-12.46s16.09-1.51,21,4.86c5.64,7.4,7.9,20.66,6.08,30.07s0-3.64-3.95-10S529.22,445,522.7,443.74Z" transform="translate(-6.25 -70.5)" style="fill:#194866"/><path d="M519.06,436.34s10.93-2.12,18.53,5.17c6.57,6.31,9.41,14.17,10.63,22.27" transform="translate(-6.25 -70.5)" style="fill:none;stroke:#161711;stroke-miterlimit:10;stroke-width:1.96836px"/><polygon points="556.55 420.51 534.68 420.51 531.04 385.28 560.19 385.28 556.55 420.51" style="fill:#2c7eea"/><path d="M114.25,212c12.23-.4,43.89-23.18,43.89-23.18s9.41-11.76-37.41,10.51C106.67,206,111.22,212.07,114.25,212Z" transform="translate(-6.25 -70.5)" style="fill:#ffc4ad"/><path d="M134.77,192.48l-28.41,8.36s-34.86-11.05-38.44-6.55c-4.24,5.33-8.1,21.6-8.1,21.6L108,218.14l28.88-7.25Z" transform="translate(-6.25 -70.5)" style="fill:#b0bfde"/><path d="M173.29,180.45s-.54-1.07.26-1.54c1.31-.77,4.38-1.11,5.47-1.2s7,.47,7,.47a6.84,6.84,0,0,1-4.11,1C178.51,178.89,173.29,180.45,173.29,180.45Z" transform="translate(-6.25 -70.5)" style="fill:#e2c59c"/><path d="M174.08,180.31c1.94-1,4.46-.58,7.29.64,2.68,1.17,4.32.22,4.32.22a34.92,34.92,0,0,0-6-2.3,10.61,10.61,0,0,0-3.84-.64C172,178.47,169.07,183,174.08,180.31Z" transform="translate(-6.25 -70.5)" style="fill:#e2c59c"/><path d="M176.48,180.29l-.61-.93-3.76-.52s-6.59,1.87-8.82,3.47-12.42,4.19-13.54,4.85-.9,6.7-.9,6.7,9.59-5.12,13.57-6.84,10.49-2.18,12.07-2.79c2.7-1,4.13-1.42,4.13-1.42s-.76-1.37-5.1,0c-1.14.36-.94-1.12-.94-1.12Z" transform="translate(-6.25 -70.5)" style="fill:#ffc4ad"/><path d="M171.73,180.14s3.31-1.15,5-.66c1.18.35,6.44,2.86,6.44,2.86a6.81,6.81,0,0,1-4.22-.47A23.16,23.16,0,0,0,171.73,180.14Z" transform="translate(-6.25 -70.5)" style="fill:#ffc4ad"/><path d="M102.7,469.75l5.19,28.2,17.88,4.61,9.52.29s-17.43-7.49-20.86-11.34c-5.22-5.83-3.76-29-3.76-29Z" transform="translate(-6.25 -70.5)" style="fill:#ffc4ad"/><path d="M107.6,502.56l3.76.29,2-2.6,15.86,4.69,10.1.8a8.42,8.42,0,0,0-1.37-2.1c-1.84-1.5-9.16-4.25-9.16-4.25s.14,2.31-1,2.6-12.12-2.74-14.72-3.76c-4.46-1.73-5.49-3.12-5.76-2.88C106.59,496,107.6,502.56,107.6,502.56Z" transform="translate(-6.25 -70.5)" style="fill:#161711"/><path d="M94,288.42l9.15,94.48,10.41,90.4L99.71,475s-17.09-90.78-19-98.62-21.16-70.48-14.25-87S94,288.42,94,288.42Z" transform="translate(-6.25 -70.5)" style="fill:#163f59"/><path d="M70.32,212.48a20.77,20.77,0,1,1-20.76-20.33A20.54,20.54,0,0,1,70.32,212.48Z" transform="translate(-6.25 -70.5)" style="fill:#e66cc7"/><path d="M85.58,170.92a15,15,0,0,1-15,15l-3.74-7.1a15,15,0,0,1-15-15v-5.6a15,15,0,0,1,15-15h3.74a15,15,0,0,1,15,15Z" transform="translate(-6.25 -70.5)" style="fill:#e66cc7"/><path d="M51.94,163.81v-5.6a15,15,0,0,1,15-15h3.74a14.81,14.81,0,0,1,9.07,3.09,33.38,33.38,0,0,1-.78,10.19c-2.51,10.9-9.8,19-17.91,21A15,15,0,0,1,51.94,163.81Z" transform="translate(-6.25 -70.5)" style="fill:#e66cc7"/><path d="M70.07,185.44A19.89,19.89,0,1,1,50.19,166,19.68,19.68,0,0,1,70.07,185.44Z" transform="translate(-6.25 -70.5)" style="fill:#e66cc7"/><path d="M73.7,211.4a20.49,20.49,0,1,1-20.49-20.06A20.28,20.28,0,0,1,73.7,211.4Z" transform="translate(-6.25 -70.5)" style="fill:#e048bb"/><path d="M49.85,174.32c7.39-5,16-5.23,19.2-.49s-.18,12.63-7.57,17.64-16,5.23-19.2.49S42.47,179.33,49.85,174.32Z" transform="translate(-6.25 -70.5)" style="fill:#e048bb"/><path d="M79.6,148.94a29.19,29.19,0,0,1-.36,4.21c-1.51,9.6-7.34,16.89-13.72,17.79a45.36,45.36,0,0,1-2.12,11.58c-1.19,3.78-5.62,7.79-5.62,7.79C56.7,197,79.52,206.85,79,205.77s-6.16-9-8-16.23a14.73,14.73,0,0,1,2.3-12.08A12.19,12.19,0,0,1,82,173.33a1.75,1.75,0,0,0,1.26-.55,10.82,10.82,0,0,0,.46-3.13V157.32A10.54,10.54,0,0,0,79.6,148.94Z" transform="translate(-6.25 -70.5)" style="fill:#ffc4ad"/><path d="M84.33,286.26,95,289s-7-30.45-8.92-42.34S84.38,230.87,85,227.18s2.38-8,0-12.11-6.09-10.92-7.56-11.46a18.33,18.33,0,0,1-6.93-3.89C69.47,198.65,84.33,286.26,84.33,286.26Z" transform="translate(-6.25 -70.5)" style="fill:#f8e44f"/><path d="M52.88,467.23l1.44,30,17.88,4.61,9.52.29s-16.93-7-19.6-11.45c-3.54-5.86,0-25.63,0-25.63Z" transform="translate(-6.25 -70.5)" style="fill:#ffc4ad"/><path d="M54,501.84l3.75.29,2-2.6,14.34,4.05,12.19.57a2.2,2.2,0,0,0-.5-1.37c-1.81-1.59-10.75-4.25-10.75-4.25s.36,2.73-.79,3-12.19-3-14.79-4.05c-4.46-1.74-5.49-3.12-5.76-2.88C53,495.27,54,501.84,54,501.84Z" transform="translate(-6.25 -70.5)" style="fill:#161711"/><path d="M50.85,289.7l2.6,82.64S50,394.75,49.74,402.22c-.63,16.82.09,67.28.09,67.28l14.94.62S75.3,378.89,76.66,371s16.63-71.46,7.8-87.27S50.85,289.7,50.85,289.7Z" transform="translate(-6.25 -70.5)" style="fill:#194866"/><path d="M88.06,288.7s-5.19-28.56-7.5-43-8.65-41.82-9.22-45.28a43.77,43.77,0,0,0-2.6-8.08s-5.48-4-10.39-3.17-8.94,11.82-11,22.5,12.7,40.37,12.7,43S49.7,279.17,49.7,285.52v7.21S75.37,280.33,88.06,288.7Z" transform="translate(-6.25 -70.5)" style="fill:#d1dbea"/><polygon points="52.83 114.5 57.01 117.11 63 121.21 61.85 127.56 50.66 117.53 52.83 114.5" style="fill:#b0bfde"/><path d="M33.78,255.2s9.37,12.51,14.3,12a42,42,0,0,0,4.8-.83c3.34-.65,4-.61,6.66-1s3-.33,3-.33,0,1.53-1,1.92-3.18.65-3.94,1,1.91-.21,5.92.11a57.11,57.11,0,0,1,9.55,1.63c1,.29,1.2.35,1.2.41,0,.49,0,.94-.53,1s-2,0-1.86,0A20.84,20.84,0,0,0,75,272.35c.43.1,1,.23,1.39.36.74.25.39,1.15-.88,1.51,0,0-.31.63-.69.76l-.54.18c-.23.06-.5.07-.72.12a15.46,15.46,0,0,1-2.56.36,25,25,0,0,0-3.34,0,10.49,10.49,0,0,1,2.31.72c-.09.4-.54.89-1,.86-.75-.07-1.91-.15-5-.55-3.46-.43-4.18-.79-8.62-.25-3.87.47-3.49,1.27-6.23.22-3.68-1.42-17.06-11.79-19.54-13.41S33.78,255.2,33.78,255.2Z" transform="translate(-6.25 -70.5)" style="fill:#ffc4ad"/><path d="M28.79,245.36,58.86,212.7s3.64-8.61,3.46-13c-.22-5.19-6.42-9.09-6.42-9.09S42.2,203,26,220.7.88,246.23,9.76,253.15s22.92,15.79,22.92,15.79l5.41-13.85Z" transform="translate(-6.25 -70.5)" style="fill:#b0bfde"/><path d="M370.49,195.78a4,4,0,0,1-4.05,4.05H331.37a4,4,0,0,1-4-4.05V144.53a4,4,0,0,1,4-4h24.28l14.84,14.83Z" transform="translate(-6.25 -70.5)" style="fill:#eaeaea"/><polygon points="350.75 83.47 364.24 96.78 364.24 84.82 362.89 83.47 350.75 83.47" style="fill:#d9d9d9"/><path d="M355.65,140.49v10.79a4,4,0,0,0,4.05,4h10.79Z" transform="translate(-6.25 -70.5)" style="fill:url(#linear-gradient)"/><rect x="329.17" y="102.35" width="26.97" height="2.7" style="fill:#a7d0e6"/><rect x="329.17" y="107.75" width="26.97" height="2.7" style="fill:#a7d0e6"/><rect x="329.17" y="113.14" width="26.97" height="2.7" style="fill:#a7d0e6"/><rect x="329.17" y="96.96" width="20.23" height="2.7" style="fill:#a7d0e6"/><path d="M300,199.06a4,4,0,0,1-4.36,3.7l-35-2.83a4,4,0,0,1-3.71-4.35l4.14-51.09a4,4,0,0,1,4.36-3.71l24.2,2,13.59,16Z" transform="translate(-6.25 -70.5)" style="fill:#eaeaea"/><polygon points="283.65 85.79 296.02 100.15 296.98 88.23 295.75 86.77 283.65 85.79" style="fill:#d9d9d9"/><path d="M289.64,142.74l-.87,10.76a4,4,0,0,0,3.7,4.36l10.76.87Z" transform="translate(-6.25 -70.5)" style="fill:url(#linear-gradient-2)"/><rect x="278.85" y="162.32" width="2.7" height="26.97" transform="translate(76.1 370.4) rotate(-85.37)" style="fill:#a7d0e6"/><rect x="278.41" y="167.7" width="2.7" height="26.97" transform="translate(70.34 374.91) rotate(-85.37)" style="fill:#a7d0e6"/><rect x="277.98" y="173.08" width="2.7" height="26.97" transform="translate(64.58 379.42) rotate(-85.37)" style="fill:#a7d0e6"/><rect x="275.92" y="160.04" width="2.7" height="20.23" transform="translate(79.04 362.29) rotate(-85.37)" style="fill:#a7d0e6"/><path d="M217.94,192.2a4.06,4.06,0,0,1-2.27,5.26l-32.6,12.91a4,4,0,0,1-5.25-2.27l-18.88-47.64a4,4,0,0,1,2.27-5.26l22.57-8.94L203,154.59Z" transform="translate(-6.25 -70.5)" style="fill:#eaeaea"/><polygon points="183.75 87.8 201.19 95.21 196.79 84.09 195.04 83.33 183.75 87.8" style="fill:#d9d9d9"/><path d="M183.78,146.26l4,10a4,4,0,0,0,5.25,2.27l10-4Z" transform="translate(-6.25 -70.5)" style="fill:url(#linear-gradient-3)"/><rect x="176.44" y="178.74" width="26.97" height="2.7" transform="translate(-59.23 12.13) rotate(-21.62)" style="fill:#a7d0e6"/><rect x="178.43" y="183.76" width="26.97" height="2.7" transform="translate(-60.94 13.22) rotate(-21.62)" style="fill:#a7d0e6"/><rect x="180.42" y="188.77" width="26.97" height="2.7" transform="translate(-62.65 14.3) rotate(-21.62)" style="fill:#a7d0e6"/><rect x="174.69" y="174.97" width="20.23" height="2.7" transform="translate(-58.21 9.99) rotate(-21.62)" style="fill:#a7d0e6"/><path d="M187.92,516.64c.66-.79.18-2.87.18-2.87s-11.44-1.28-15.12-.41a19.38,19.38,0,0,0-4.09,1.92c-.25.15-.71,1-1,1.17-.46.28-.7-.18-1.09.06a12.93,12.93,0,0,0-1.75,1.21c-1,5.25.33,7.36.33,7.36s9.42,2.93,11.57,1C182.44,521.13,186.49,518.38,187.92,516.64Z" transform="translate(-6.25 -70.5)" style="fill:#161711"/><path d="M224.11,521l1.63,8.52h8.69s.49-1.21,1.22-1.21,1.42,1.21,2.26,1.21H260s.39-1.79-.09-2.41a8.47,8.47,0,0,0-2.67-1.15c-4.49-1.26-17.33-5.2-19.57-9.48C235,511.24,224.11,521,224.11,521Z" transform="translate(-6.25 -70.5)" style="fill:#161711"/><path d="M231,233.72l2.08-10.32s7.34.56,8.76-3.39c2.88-7.92.47-20.58-1.27-24.12-4.94-10.1-7-27.79-30.16-13.73-8.8,5.36,4.78,31.29,5.8,36.9s-2,12.08-2,12.08l5.41,4.06Z" transform="translate(-6.25 -70.5)" style="fill:#e9d6b8"/><path d="M189.89,331.46,189.13,364s-12.27-13.53-13.46-28.92S189.12,330.25,189.89,331.46Z" transform="translate(-6.25 -70.5)" style="fill:#e2c59c"/><path d="M203.68,398.55s3.38,1.48-6.59,48.82c-7.19,34.09-13.33,59-16.21,70.32-1.11,4.38-2.36,3.59-2.36,3.59l-9.5,1.06-4.53-3.93,13.58-77.24Z" transform="translate(-6.25 -70.5)" style="fill:#163f59"/><path d="M265.88,310.25l-19.46,37.31s37.13-26.85,34.8-41.63S265.88,310.25,265.88,310.25Z" transform="translate(-6.25 -70.5)" style="fill:#e9d6b8"/><path d="M189.68,243.79s-7.89,4.82-13.57,44-2.06,37.69-2.06,37.69l1,8.92L189.83,336l8-33.83Z" transform="translate(-6.25 -70.5)" style="fill:#7dc2f5"/><path d="M225.92,345.54s-21.77,90.13-38.86,130.54c-10,23.66-10.1-21.77-10.1-21.77l15.56-130.88,45.43-2.2S232.8,322.82,225.92,345.54Z" transform="translate(-6.25 -70.5)" style="fill:#163f59"/><path d="M210.07,321.49s16.44,116.69,18.17,122c5.85,17.82,14.87-5.54,16.93-11.47s5.51-49.9,4.82-82l-.68-32.07Z" transform="translate(-6.25 -70.5)" style="fill:#163f59"/><path d="M226.59,414.26S224.1,428.17,222,446c-1.53,13.05-1.56,50.35.84,76.25C223,523.8,239.5,519,239.5,519s6-72.5,7.39-88.74S236.92,402.66,226.59,414.26Z" transform="translate(-6.25 -70.5)" style="fill:#163f59"/><path d="M189.2,243.87l19.42-8.82L214,230l20.65-.49,3.61,5.95,16,6.94s3.95,6.21.51,29.26c-3.8,25.54-4.61,64.14-4.61,64.14l-60.52,2.92S194.87,256.26,189.2,243.87Z" transform="translate(-6.25 -70.5)" style="fill:#8dcfff"/><path d="M249.1,242.43s3.6-4,12.37,6.89c15,18.6,22.21,41.66,23.76,46.12s3.54,10.78-2.59,18.2c-4.67,5.68-6.19,7.59-6.19,7.59L263,312.86l2.11-4,1.51-2s-7.23-15.87-15-30.26S249.1,242.43,249.1,242.43Z" transform="translate(-6.25 -70.5)" style="fill:#8dcfff"/><path d="M234.07,198.85s-2.62-1.61-3,.4,1,6.43,2.21,6.84,1.61,5.83,1.61,5.83l-3.22,6H215.37s-5-2.21-5.43-5.83S205.52,183,205.52,183l11.45-6a76.64,76.64,0,0,1,10.26-4.23c6.48-1.85,7.84,1.61,7.64,3.42s1.81,2,4.42,2,5.84,2,4.43,3.22c-.59.49,2,2.08,1,4-1.48,2.75-6.42,3.64-6.82,8.06C237.71,195.43,236.88,202.06,234.07,198.85Z" transform="translate(-6.25 -70.5)" style="fill:#194866"/></svg>